<?xml version="1.0" standalone="no"?>
<!DOCTYPE svg PUBLIC "-//W3C//DTD SVG 20010904//EN"
 "http://www.w3.org/TR/2001/REC-SVG-20010904/DTD/svg10.dtd">
<svg version="1.0" xmlns="http://www.w3.org/2000/svg"
 width="500.000000pt" height="500.000000pt" viewBox="0 0 500.000000 500.000000"
 preserveAspectRatio="xMidYMid meet">
<metadata>
Created by potrace 1.10, written by Peter Selinger 2001-2011
</metadata>
<g transform="translate(0.000000,500.000000) scale(0.100000,-0.100000)"
fill="#000000" stroke="none">
<path d="M3345 3683 c9 -52 13 -63 23 -63 8 0 35 81 29 86 -1 1 -15 4 -30 8
-28 7 -28 6 -22 -31z"/>
<path d="M3288 3703 c-22 -6 -23 -3 5 -51 28 -49 45 -42 39 16 -4 41 -8 45
-44 35z"/>
<path d="M3414 3695 c-10 -26 -9 -78 1 -81 8 -3 32 28 53 67 1 3 -9 11 -23 17
-21 10 -27 9 -31 -3z"/>
<path d="M3227 3662 c-15 -16 -14 -20 19 -45 45 -36 58 -27 31 23 -25 45 -28
47 -50 22z"/>
<path d="M3461 3639 c-12 -17 -20 -37 -17 -44 4 -12 12 -10 40 8 38 24 43 36
24 55 -17 17 -22 15 -47 -19z"/>
<path d="M3182 3606 c-10 -22 -7 -25 31 -40 55 -22 68 -2 24 36 -39 34 -41 34
-55 4z"/>
<path d="M3498 3593 c-49 -33 -42 -54 15 -40 53 13 51 11 35 40 l-13 25 -37
-25z"/>
<path d="M1285 3551 c-91 -24 -150 -72 -191 -152 -54 -108 -37 -240 43 -329
65 -72 119 -95 223 -94 96 0 136 14 194 64 l37 33 -3 91 -3 91 -110 0 -110 0
-3 -42 -3 -43 70 0 c71 0 71 0 71 -27 0 -37 -54 -72 -120 -80 -64 -7 -143 29
-180 83 -35 52 -40 154 -11 212 31 60 81 95 146 100 66 5 91 0 139 -33 l37
-25 39 26 c22 15 40 29 40 31 0 10 -47 45 -93 69 -53 27 -157 40 -212 25z
m201 -55 c30 -14 54 -29 54 -34 0 -22 -32 -20 -75 4 -111 63 -260 11 -310
-108 -43 -104 -1 -238 92 -294 112 -67 273 -22 273 76 0 49 -14 60 -77 60 -29
0 -53 5 -53 10 0 6 35 10 85 10 l85 0 0 -68 c0 -58 -3 -72 -23 -90 -56 -53
-210 -72 -292 -37 -50 21 -101 69 -126 117 -27 52 -27 193 0 246 63 123 228
171 367 108z"/>
<path d="M3160 3535 c0 -23 4 -25 45 -25 54 0 62 22 14 39 -48 16 -59 14 -59
-14z"/>
<path d="M1685 3541 c-6 -6 -8 -101 -5 -261 l5 -252 28 -24 c23 -19 39 -24 87
-24 32 0 61 4 64 9 3 5 1 22 -5 39 -9 26 -17 31 -47 34 l-37 3 -5 240 -5 240
-35 3 c-19 2 -40 -2 -45 -7z m55 -240 c0 -115 4 -221 10 -236 5 -14 25 -33 42
-41 l33 -15 -45 5 c-26 3 -49 12 -57 22 -10 13 -13 76 -13 246 0 196 2 228 15
228 13 0 15 -30 15 -209z"/>
<path d="M3508 3537 c-47 -15 -38 -32 19 -41 42 -6 42 -6 40 24 -2 33 -5 34
-59 17z"/>
<path d="M884 3495 c-22 -33 -6 -72 32 -81 33 -8 56 5 68 39 21 58 -66 94
-100 42z m66 -24 c0 -11 -5 -23 -11 -27 -15 -9 -33 12 -26 30 9 23 37 20 37
-3z"/>
<path d="M3197 3493 c-37 -4 -38 -6 -32 -31 4 -15 8 -28 9 -29 1 -1 19 5 39
14 23 11 37 24 37 35 0 10 -3 17 -7 16 -5 -1 -25 -3 -46 -5z"/>
<path d="M3470 3477 c0 -8 16 -25 37 -37 29 -17 38 -18 44 -8 18 28 10 48 -20
48 -16 0 -36 3 -45 6 -10 4 -16 1 -16 -9z"/>
<path d="M3213 3431 c-31 -16 -31 -17 -15 -39 l18 -23 32 34 c45 47 28 61 -35
28z"/>
<path d="M2188 3431 c-36 -7 -72 -27 -99 -53 -8 -8 -31 -24 -52 -37 -44 -27
-83 -89 -92 -146 -14 -86 39 -186 119 -223 38 -18 64 -22 150 -22 109 0 148
10 199 50 73 58 89 180 38 286 -34 68 -65 105 -107 127 -37 19 -109 27 -156
18z m144 -40 c24 -10 50 -26 58 -36 13 -15 9 -15 -27 4 -153 77 -339 -63 -307
-232 8 -39 9 -37 14 39 5 69 10 87 33 118 61 79 179 105 264 57 52 -30 93
-108 93 -178 0 -48 -35 -137 -50 -128 -4 3 -11 -2 -14 -10 -15 -41 -166 -72
-217 -45 -13 8 -19 7 -19 0 0 -23 -110 21 -143 58 -11 12 -16 26 -12 32 3 6 1
9 -7 8 -18 -4 -23 166 -5 180 9 8 13 -1 15 -36 3 -54 31 -152 43 -152 4 0 2
18 -6 40 -40 114 -28 194 37 238 101 68 165 80 250 43z"/>
<path d="M3447 3434 c-3 -4 0 -13 8 -21 8 -8 21 -23 29 -35 l15 -21 20 24 19
24 -31 17 c-34 18 -50 22 -60 12z"/>
<path d="M3255 3389 c-29 -30 -29 -31 -11 -45 28 -20 30 -18 45 21 22 62 10
71 -34 24z"/>
<path d="M3416 3412 c-7 -12 13 -92 23 -92 3 1 16 6 28 13 l22 12 -33 39 c-21
26 -35 35 -40 28z"/>
<path d="M3308 3361 c-14 -35 -14 -40 -1 -45 35 -14 43 -7 43 39 0 57 -21 60
-42 6z"/>
<path d="M3370 3371 c0 -16 -3 -36 -6 -45 -5 -13 1 -16 26 -16 34 0 34 1 9 68
-12 31 -29 27 -29 -7z"/>
<path d="M2861 3368 c-5 -13 -23 -59 -41 -103 -18 -44 -36 -91 -42 -105 -8
-22 -12 -18 -42 55 -71 170 -60 155 -115 155 l-49 0 89 -197 c63 -141 93 -198
105 -198 11 0 30 35 64 118 26 65 50 120 52 122 2 3 26 -50 54 -118 29 -72 55
-123 64 -125 11 -2 40 52 100 183 47 103 86 193 88 201 3 11 -8 14 -43 14 -51
0 -48 4 -116 -165 l-28 -70 -11 29 c-6 17 -24 59 -39 95 -15 36 -34 81 -41 99
-14 37 -37 42 -49 10z m-161 -138 c65 -148 74 -146 158 49 l28 65 38 -95 c42
-100 66 -135 88 -126 8 2 34 53 58 111 34 80 50 106 63 106 10 0 17 -4 15 -9
-26 -68 -143 -310 -147 -306 -3 4 -24 49 -46 102 -63 149 -83 148 -145 -9 -18
-46 -37 -87 -41 -92 -4 -4 -17 14 -29 40 -13 27 -44 97 -71 156 -27 59 -49
110 -49 113 0 4 8 5 17 3 10 -2 34 -43 63 -108z"/>
<path d="M884 3357 c-2 -7 -3 -94 -2 -192 l3 -180 45 0 45 0 3 193 2 192 -45
0 c-28 0 -48 -5 -51 -13z m56 -177 c0 -100 -4 -160 -10 -160 -6 0 -10 60 -10
160 0 100 4 160 10 160 6 0 10 -60 10 -160z"/>
<path d="M1936 2938 c-19 -17 -30 -41 -39 -88 -12 -59 -15 -65 -37 -65 -18 0
-26 -7 -28 -21 -3 -18 1 -21 21 -17 l24 5 -19 -94 c-10 -51 -21 -101 -24 -111
-5 -15 -1 -18 18 -15 21 3 25 12 43 111 l20 109 32 -4 c21 -3 34 1 38 10 10
26 5 31 -31 25 -32 -5 -36 -4 -31 13 3 10 9 37 13 59 9 51 20 65 54 65 19 0
29 6 33 20 4 17 0 20 -28 20 -21 0 -44 -9 -59 -22z"/>
<path d="M960 2904 c-50 -22 -99 -71 -126 -129 -30 -63 -30 -110 -1 -165 56
-107 200 -107 302 -1 38 40 39 41 14 41 -14 0 -34 -9 -45 -21 -58 -65 -160
-76 -215 -23 -93 89 5 274 145 274 51 0 85 -16 104 -50 11 -19 25 -30 40 -30
27 0 27 6 2 48 -41 67 -137 92 -220 56z"/>
<path d="M1300 2769 c-52 -30 -85 -83 -85 -137 0 -37 5 -48 34 -74 30 -27 39
-30 82 -26 125 12 193 155 109 231 -37 33 -89 36 -140 6z m115 -44 c29 -28 31
-54 10 -95 -31 -59 -109 -77 -150 -35 -29 28 -31 45 -10 89 31 64 107 85 150
41z"/>
<path d="M1570 2787 c0 -1 -11 -56 -25 -122 -30 -143 -30 -135 -6 -135 15 0
21 12 31 68 16 85 33 118 70 137 68 35 88 11 72 -88 -7 -40 -15 -82 -18 -94
-5 -18 -2 -23 14 -23 24 0 26 7 43 112 9 53 10 87 3 105 -17 49 -91 56 -134
13 -26 -26 -34 -25 -20 0 6 11 9 20 8 21 -12 3 -38 7 -38 6z"/>
<path d="M2095 2771 c-57 -35 -78 -67 -83 -124 -4 -46 -1 -57 21 -83 22 -25
32 -29 79 -29 44 0 62 5 91 28 60 45 40 67 -25 27 -55 -33 -118 -19 -131 30
-5 19 -1 20 109 20 l114 0 0 41 c0 33 -6 47 -34 75 -40 40 -92 46 -141 15z
m110 -46 c41 -40 32 -45 -67 -45 l-93 1 37 34 c46 43 88 46 123 10z"/>
<path d="M2355 2776 c-5 -17 -45 -230 -45 -238 0 -5 8 -8 19 -8 15 0 21 15 35
82 19 95 45 132 88 126 21 -4 27 0 31 19 2 12 2 25 -1 28 -12 12 -42 3 -70
-20 l-29 -24 4 23 c3 16 0 23 -12 23 -9 0 -18 -5 -20 -11z"/>
<path d="M2585 2774 c-61 -32 -95 -79 -95 -133 0 -116 132 -151 219 -57 l24
26 -23 0 c-13 0 -31 -7 -40 -15 -10 -9 -34 -19 -54 -22 -30 -5 -42 -1 -61 17
-14 13 -25 31 -25 39 0 14 15 16 110 13 l110 -3 0 41 c0 52 -13 76 -50 95 -37
19 -77 19 -115 -1z m105 -44 c40 -40 28 -50 -65 -50 -82 0 -85 1 -75 20 25 47
106 64 140 30z"/>
<path d="M2846 2781 c-4 -5 -15 -54 -26 -108 -11 -54 -22 -108 -25 -121 -5
-20 -2 -23 17 -20 19 3 24 11 30 58 5 30 15 71 24 91 26 60 102 90 124 50 9
-18 -4 -114 -26 -183 -4 -14 0 -18 19 -18 23 0 25 5 38 93 17 110 15 127 -12
150 -30 25 -72 21 -109 -9 l-31 -27 7 27 c5 20 2 26 -9 26 -9 0 -18 -4 -21 -9z"/>
<path d="M3185 2776 c-56 -25 -88 -70 -93 -130 -4 -51 -2 -57 26 -86 33 -33
83 -40 125 -19 27 14 77 60 77 71 0 16 -33 7 -62 -17 -55 -47 -132 -21 -130
44 1 44 26 80 69 97 41 18 68 11 89 -22 18 -27 54 -33 54 -8 0 26 -19 53 -50
69 -35 18 -65 19 -105 1z"/>
<path d="M3472 2774 c-48 -24 -84 -76 -90 -129 -4 -41 -2 -47 31 -80 27 -27
43 -35 71 -35 43 0 82 18 115 54 l24 26 -22 0 c-13 0 -34 -9 -48 -20 -14 -11
-38 -20 -53 -20 -32 0 -80 35 -80 58 0 15 12 17 109 14 l108 -3 6 28 c6 32
-12 81 -36 102 -27 21 -97 24 -135 5z m93 -30 c8 -4 22 -19 30 -35 l15 -28
-90 -3 c-50 -2 -90 -2 -90 0 0 2 5 12 10 22 20 37 84 59 125 44z"/>
<path d="M835 2335 c-23 -22 -25 -32 -25 -115 0 -83 2 -93 25 -115 l24 -25
919 0 c1086 0 972 -16 972 136 0 87 -2 97 -25 119 l-24 25 -921 0 -921 0 -24
-25z m1871 -8 c10 -10 24 -175 17 -193 -3 -7 -12 -16 -21 -18 -10 -3 -390 -6
-847 -7 -987 -1 -986 -1 -1003 9 -8 6 -13 36 -13 93 -2 111 -2 108 24 118 28
11 1833 9 1843 -2z"/>
<path d="M1130 2295 c-3 -5 -3 -39 0 -75 3 -36 7 -60 10 -55 3 6 3 39 0 75 -3
36 -7 61 -10 55z"/>
<path d="M2183 2265 c5 -31 4 -34 -11 -26 -24 13 -52 -5 -52 -33 0 -30 18 -45
52 -43 28 2 28 3 28 70 0 43 -4 67 -11 67 -8 0 -10 -12 -6 -35z m-6 -46 c15
-15 5 -39 -17 -39 -22 0 -32 24 -17 39 6 6 14 11 17 11 3 0 11 -5 17 -11z"/>
<path d="M2551 2295 c-7 -23 -5 -135 2 -135 4 0 7 8 7 18 1 15 2 15 15 -2 8
-11 18 -17 22 -13 3 4 -1 15 -11 26 -15 16 -15 19 -1 31 8 7 15 17 15 23 0 5
-9 2 -19 -7 -19 -18 -20 -17 -24 26 -2 23 -5 39 -6 33z"/>
<path d="M1385 2260 c4 -6 11 -8 16 -5 14 9 11 15 -7 15 -8 0 -12 -5 -9 -10z"/>
<path d="M1660 2260 c0 -5 5 -10 10 -10 6 0 10 5 10 10 0 6 -4 10 -10 10 -5 0
-10 -4 -10 -10z"/>
<path d="M1040 2233 c-11 -8 -20 -20 -20 -27 0 -20 37 -49 55 -43 8 4 15 2 15
-4 0 -16 -29 -22 -45 -9 -9 7 -19 10 -23 6 -8 -9 26 -36 44 -36 25 0 44 32 44
75 0 38 -3 43 -25 47 -13 3 -34 -1 -45 -9z m48 -26 c4 -20 -25 -34 -40 -19
-15 15 -1 44 19 40 10 -2 19 -11 21 -21z"/>
<path d="M1176 2234 c-19 -18 -20 -28 -6 -55 12 -21 40 -25 58 -7 18 18 14 56
-7 68 -25 13 -27 13 -45 -6z m44 -19 c15 -18 5 -35 -21 -35 -12 0 -19 7 -19
18 0 33 20 42 40 17z"/>
<path d="M1250 2245 c0 -2 7 -23 16 -45 17 -43 34 -53 34 -20 0 29 17 25 27
-7 9 -26 9 -25 27 21 21 54 14 76 -7 25 l-14 -34 -8 28 c-4 15 -11 27 -15 27
-4 0 -11 -12 -15 -27 l-7 -28 -13 33 c-12 28 -25 42 -25 27z"/>
<path d="M1432 2205 c1 -45 1 -46 7 -15 8 46 35 47 39 2 4 -36 22 -34 22 3 0
32 -28 59 -45 45 -10 -8 -14 -7 -18 2 -3 7 -5 -9 -5 -37z"/>
<path d="M1527 2232 c-32 -35 -10 -81 32 -67 16 5 20 3 15 -9 -7 -19 -35 -21
-53 -3 -11 10 -13 9 -9 -2 7 -25 36 -37 56 -25 19 12 31 114 13 114 -5 0 -16
2 -23 5 -8 3 -22 -3 -31 -13z m43 -17 c15 -18 5 -35 -21 -35 -12 0 -19 7 -19
18 0 33 20 42 40 17z"/>
<path d="M1700 2203 c0 -50 17 -58 22 -11 4 46 28 49 28 4 0 -20 5 -36 10 -36
14 0 12 67 -2 77 -7 4 -23 8 -35 8 -20 1 -23 -4 -23 -42z"/>
<path d="M1846 2234 c-32 -32 -8 -82 34 -69 12 4 20 2 20 -5 0 -18 -31 -24
-52 -11 -16 10 -19 10 -16 0 8 -23 36 -35 56 -23 12 8 18 27 20 70 3 54 -8 72
-14 21 -1 -12 -3 -25 -3 -29 -1 -5 -10 -8 -21 -8 -27 0 -27 40 0 47 11 3 17 9
14 14 -8 13 -21 11 -38 -7z"/>
<path d="M1945 2234 c-20 -20 -16 -53 8 -68 39 -24 79 44 41 71 -23 17 -29 16
-49 -3z m49 -20 c8 -21 -1 -34 -25 -34 -12 0 -19 7 -19 18 0 34 33 45 44 16z"/>
<path d="M2040 2230 c-16 -16 -18 -25 -10 -40 14 -26 27 -32 50 -25 28 9 35
43 14 66 -22 24 -29 24 -54 -1z m48 -23 c4 -20 -25 -34 -40 -19 -15 15 -1 44
19 40 10 -2 19 -11 21 -21z"/>
<path d="M2260 2245 c0 -2 7 -23 16 -45 17 -42 34 -53 34 -22 0 34 14 34 26 0
l11 -33 18 48 c20 54 13 77 -8 26 l-14 -34 -8 28 c-4 15 -11 27 -15 27 -4 0
-11 -12 -15 -27 l-7 -28 -13 33 c-12 28 -25 42 -25 27z"/>
<path d="M2407 2232 c-21 -23 -22 -46 -2 -62 19 -16 45 -9 62 17 13 19 12 24
-6 42 -26 26 -33 26 -54 3z m51 -25 c4 -20 -25 -34 -40 -19 -15 15 -1 44 19
40 10 -2 19 -11 21 -21z"/>
<path d="M2490 2203 c0 -24 5 -43 10 -43 6 0 10 16 10 35 0 19 5 35 10 35 6 0
10 4 10 8 0 4 -9 8 -20 8 -17 0 -20 -7 -20 -43z"/>
<path d="M2622 2238 c-18 -18 -15 -26 16 -43 l27 -16 -28 6 c-21 4 -28 2 -25
-7 3 -7 15 -13 29 -13 31 0 39 34 10 42 -12 3 -21 10 -21 15 0 5 9 6 20 3 24
-7 27 10 4 19 -20 8 -18 8 -32 -6z"/>
<path d="M1388 2204 c-2 -19 0 -37 4 -40 4 -3 8 13 8 35 0 51 -6 53 -12 5z"/>
<path d="M1660 2200 c0 -22 5 -40 10 -40 6 0 10 18 10 40 0 22 -4 40 -10 40
-5 0 -10 -18 -10 -40z"/>
<path d="M896 2181 c-4 -7 -5 -15 -2 -18 9 -9 19 4 14 18 -4 11 -6 11 -12 0z"/>
<path d="M936 2182 c-3 -6 -1 -14 5 -17 15 -10 25 3 12 16 -7 7 -13 7 -17 1z"/>
<path d="M986 2181 c-4 -7 -5 -15 -2 -18 9 -9 19 4 14 18 -4 11 -6 11 -12 0z"/>
</g>
</svg>
